<?xml version="1.0" encoding="utf-8"?>
<svg
  version="1.1"
  xmlns="http://www.w3.org/2000/svg"
  xmlns:xlink="http://www.w3.org/1999/xlink"
	viewBox="0 0 900 1200"
  xml:space="preserve"
>
  <g id="Objects">
    <!-- Only the middle lock group kept -->
    <g>
		<path d="M741.434,687.746c-19.648-30.819-49.453-54.309-83.524-67.271c-5.099-1.94-10.284-3.59-15.529-4.975
			c0-28.804,0-57.608,0-86.411c0-27.581-5.11-54.429-16.141-79.756c-13.975-32.087-37.281-59.738-65.881-79.79
			c-57.087-40.024-134.266-44.548-196.072-12.688c-62.242,32.084-102.358,97.819-103.001,167.713
			c-0.279,30.297-0.029,60.608-0.012,90.907c-5.209,1.385-10.39,3.044-15.527,5.001c-36.02,13.723-67.517,39.289-86.884,72.801
			c-22.367,38.702-25.096,84.572-15.932,127.604c4.839,22.72,12.878,44.641,22.479,65.755c9.19,20.211,19.787,40.022,32.237,58.425
			c23.166,34.243,52.485,63.964,84.782,89.634c33.406,26.551,69.76,49.174,107.811,68.436c18.503,9.367,37.409,17.914,56.595,25.784
			c5.9,2.42,10.131-0.03,15.659-2.346c4.924-2.063,9.835-4.161,14.72-6.314c9.563-4.215,19.04-8.624,28.418-13.234
			c74.72-36.728,146.664-86.64,195.587-155.072c5.748-8.04,11.104-16.345,16.076-24.886
			C758.114,856.255,789.478,763.105,741.434,687.746z M277.655,531.215c0-24.018,3.473-47.293,12.318-69.749
			c11.939-30.312,33.243-57.364,59.648-76.398c53.381-38.48,126.157-43.859,184.278-12.602
			c56.512,30.392,91.905,89.966,92.106,154.001c0.089,28.54,0.016,57.082,0.004,85.623c-12.898-1.989-26.017-2.413-39.037-1.352
			c0-25.489,0-50.978,0-76.467c0-17.886-1.496-35.475-7.516-52.49c-8.616-24.353-24.005-46.018-44.395-61.913
			c-42.793-33.359-102.797-38.064-150.062-11.11c-42.646,24.32-68.275,70.238-68.312,119.052
			c-0.021,27.663-0.004,55.325-0.001,82.988c-12.94-1.126-26.025-0.761-39.032,1.249
			C277.655,585.103,277.655,558.159,277.655,531.215z M451.803,686.975c-29.058-38.087-72.284-65.377-118.738-73.951
			c0-25.308,0-50.615,0-75.923c0-15.156,0.528-29.89,4.866-44.599c6.727-22.809,20.407-43.013,38.665-58.186
			c38.052-31.622,93.77-35.369,136.068-10.089c20.519,12.263,36.853,30.584,47.027,52.188c7.91,16.796,10.905,34.893,10.905,53.324
			c0,27.707,0,55.415,0,83.122c-7.869,1.405-15.652,3.346-23.272,5.817C509.317,631.001,475.816,655.198,451.803,686.975z
			 M703.155,918.796c-42.803,73.526-114.623,126.55-188.801,165.459c-20.364,10.682-41.242,20.389-62.516,29.118
			c-53.098-21.775-104.236-49.483-150.016-84.189c-23.105-17.516-44.761-37.157-63.969-58.892
			c-19.379-21.928-35.228-46.169-48.669-72.129c-28.145-54.359-48.522-120.875-24.211-180.459
			c19.627-48.103,67.469-83.297,118.656-90.096c55.591-7.384,112.015,18.511,148.081,60.274c4.735,5.483,9.038,11.271,13.055,17.299
			c3.501,5.253,10.645,5.281,14.141,0c38.565-58.26,113.684-92.959,182.42-73.009c31.393,9.112,60.306,28.661,79.855,54.964
			c22.302,30.008,30.682,66.571,27.638,103.561C745.067,836.287,725.741,879.617,703.155,918.796z"/>
		<path d="M510.121,834.704c-1.051-19.079-11.371-36.629-27.672-46.663c-33.785-20.796-80.376-0.254-87.082,39.063
			c-3.694,21.657,4.812,42.818,21.702,56.187c-2.577,19.442-5.154,38.884-7.73,58.326c-0.38,2.867-0.995,5.841-0.904,8.744
			c0.342,10.885,8.711,20.145,19.391,21.808c10.566,1.646,22.077,0.357,32.729,0.357c4.643,0,9.406,0.313,14.042-0.064
			c12.685-1.033,22.562-11.994,21.464-24.857c-2.843-21.435-5.686-42.871-8.53-64.306
			C502.218,871.677,511.171,853.778,510.121,834.704z M458.678,956.149c-8.992,0-18.282,0.692-27.25,0
			c-9.316-0.719-6.099-11.613-5.286-17.75c1.505-11.355,3.01-22.711,4.515-34.066c1.097-8.273,2.193-16.547,3.29-24.82
			c0.378-2.853-1.857-5.634-4.055-7.07c-25.34-16.559-25.066-54.976,1.078-70.601c24.512-14.65,56.338-0.035,62.096,27.632
			c3.456,16.607-4.322,33.798-18.357,42.97c-2.198,1.436-4.434,4.217-4.055,7.07c3.011,22.697,6.021,45.394,9.032,68.091
			C480.666,959.099,466.056,956.149,458.678,956.149z"/>
	</g>
  </g>
</svg>